<?xml version="1.0" standalone="no"?>
<!DOCTYPE svg PUBLIC "-//W3C//DTD SVG 20010904//EN"
 "http://www.w3.org/TR/2001/REC-SVG-20010904/DTD/svg10.dtd">
<svg version="1.0" xmlns="http://www.w3.org/2000/svg"
 width="512.000000pt" height="512.000000pt" viewBox="0 0 512.000000 512.000000"
 preserveAspectRatio="xMidYMid meet">

<g transform="translate(0.000000,512.000000) scale(0.100000,-0.100000)"
fill="#000000" stroke="none">
<path d="M770 4905 l0 -215 85 0 85 0 0 215 0 215 -85 0 -85 0 0 -215z"/>
<path d="M1192 4908 l3 -213 85 0 85 0 3 213 2 212 -90 0 -90 0 2 -212z"/>
<path d="M1620 4905 l0 -215 85 0 85 0 0 215 0 215 -85 0 -85 0 0 -215z"/>
<path d="M2050 4905 l0 -215 85 0 85 0 0 215 0 215 -85 0 -85 0 0 -215z"/>
<path d="M2472 4908 l3 -213 85 0 85 0 3 213 2 212 -90 0 -90 0 2 -212z"/>
<path d="M2900 4905 l0 -215 85 0 85 0 0 215 0 215 -85 0 -85 0 0 -215z"/>
<path d="M3330 4905 l0 -215 85 0 85 0 0 215 0 215 -85 0 -85 0 0 -215z"/>
<path d="M3752 4908 l3 -213 85 0 85 0 3 213 2 212 -90 0 -90 0 2 -212z"/>
<path d="M4180 4905 l0 -215 85 0 85 0 0 215 0 215 -85 0 -85 0 0 -215z"/>
<path d="M896 4500 c-128 -41 -237 -150 -276 -277 -20 -64 -20 -91 -20 -1663
0 -1565 0 -1599 20 -1662 40 -129 149 -238 278 -278 63 -20 97 -20 1662 -20
1565 0 1599 0 1662 20 129 40 238 149 278 278 20 63 20 97 20 1662 0 1565 0
1599 -20 1662 -40 129 -149 238 -278 278 -63 20 -96 20 -1666 19 -1540 0
-1603 -1 -1660 -19z m3164 -241 c78 -17 139 -63 175 -133 l30 -60 0 -1506 0
-1506 -30 -60 c-36 -70 -97 -116 -175 -133 -71 -15 -2929 -15 -3000 0 -78 17
-139 63 -175 133 l-30 60 0 1506 0 1506 30 59 c35 68 88 111 162 131 64 17
2933 20 3013 3z"/>
<path d="M1085 4091 c-11 -5 -29 -19 -40 -31 -20 -22 -20 -36 -20 -1501 l0
-1479 28 -27 27 -28 1480 0 1480 0 27 28 28 27 0 1480 0 1480 -28 27 -27 28
-1468 2 c-807 1 -1476 -2 -1487 -6z m535 -251 l0 -90 -125 0 -125 0 0 -125 0
-125 -91 0 -91 0 4 148 c3 131 6 151 27 188 43 75 90 92 274 93 l127 1 0 -90z
m2305 0 l0 -85 -85 0 -85 0 -3 74 c-2 41 -1 80 2 88 4 11 25 13 88 11 l83 -3
0 -85z m3 -2432 l-3 -213 -212 -3 -213 -2 0 90 0 90 125 0 125 0 0 125 0 125
90 0 90 0 -2 -212z m-2563 -128 l0 -85 -85 0 -85 0 -3 74 c-2 41 -1 80 2 88 4
11 25 13 88 11 l83 -3 0 -85z"/>
<path d="M0 4265 l0 -85 215 0 215 0 0 85 0 85 -215 0 -215 0 0 -85z"/>
<path d="M4690 4265 l0 -85 215 0 215 0 0 85 0 85 -215 0 -215 0 0 -85z"/>
<path d="M0 3840 l0 -90 213 2 212 3 0 85 0 85 -212 3 -213 2 0 -90z"/>
<path d="M4694 3917 c-3 -8 -4 -47 -2 -88 l3 -74 213 -3 212 -2 0 90 0 90
-210 0 c-167 0 -212 -3 -216 -13z"/>
<path d="M0 3415 l0 -85 215 0 215 0 0 85 0 85 -215 0 -215 0 0 -85z"/>
<path d="M4690 3415 l0 -85 215 0 215 0 0 85 0 85 -215 0 -215 0 0 -85z"/>
<path d="M0 2985 l0 -85 215 0 215 0 0 85 0 85 -215 0 -215 0 0 -85z"/>
<path d="M4690 2985 l0 -85 215 0 215 0 0 85 0 85 -215 0 -215 0 0 -85z"/>
<path d="M0 2560 l0 -90 213 2 212 3 0 85 0 85 -212 3 -213 2 0 -90z"/>
<path d="M4694 2637 c-3 -8 -4 -47 -2 -88 l3 -74 213 -3 212 -2 0 90 0 90
-210 0 c-167 0 -212 -3 -216 -13z"/>
<path d="M0 2135 l0 -85 215 0 215 0 0 85 0 85 -215 0 -215 0 0 -85z"/>
<path d="M4690 2135 l0 -85 215 0 215 0 0 85 0 85 -215 0 -215 0 0 -85z"/>
<path d="M0 1705 l0 -85 215 0 215 0 0 85 0 85 -215 0 -215 0 0 -85z"/>
<path d="M4690 1705 l0 -85 215 0 215 0 0 85 0 85 -215 0 -215 0 0 -85z"/>
<path d="M0 1280 l0 -90 213 2 212 3 0 85 0 85 -212 3 -213 2 0 -90z"/>
<path d="M4694 1357 c-3 -8 -4 -47 -2 -88 l3 -74 213 -3 212 -2 0 90 0 90
-210 0 c-167 0 -212 -3 -216 -13z"/>
<path d="M0 855 l0 -85 215 0 215 0 0 85 0 85 -215 0 -215 0 0 -85z"/>
<path d="M4690 855 l0 -85 215 0 215 0 0 85 0 85 -215 0 -215 0 0 -85z"/>
<path d="M770 215 l0 -215 85 0 85 0 0 215 0 215 -85 0 -85 0 0 -215z"/>
<path d="M1197 424 c-4 -4 -7 -101 -7 -216 l0 -208 90 0 90 0 -2 213 -3 212
-80 3 c-45 1 -84 0 -88 -4z"/>
<path d="M1620 215 l0 -215 85 0 85 0 0 215 0 215 -85 0 -85 0 0 -215z"/>
<path d="M2050 215 l0 -215 85 0 85 0 0 215 0 215 -85 0 -85 0 0 -215z"/>
<path d="M2477 424 c-4 -4 -7 -101 -7 -216 l0 -208 90 0 90 0 -2 213 -3 212
-80 3 c-45 1 -84 0 -88 -4z"/>
<path d="M2900 215 l0 -215 85 0 85 0 0 215 0 215 -85 0 -85 0 0 -215z"/>
<path d="M3330 215 l0 -215 85 0 85 0 0 215 0 215 -85 0 -85 0 0 -215z"/>
<path d="M3757 424 c-4 -4 -7 -101 -7 -216 l0 -208 90 0 90 0 -2 213 -3 212
-80 3 c-45 1 -84 0 -88 -4z"/>
<path d="M4180 215 l0 -215 85 0 85 0 0 215 0 215 -85 0 -85 0 0 -215z"/>
</g>
</svg>
